<svg width="8" height="8" viewBox="0 0 8 8" fill="none" xmlns="http://www.w3.org/2000/svg">
<path fill-rule="evenodd" clip-rule="evenodd" d="M7.60682 0.535534C7.79436 0.72307 7.89972 0.977424 7.89972 1.24264C7.89972 1.50786 7.79436 1.76221 7.60682 1.94975L5.4855 4.07107L7.60682 6.19239C7.79436 6.37992 7.89972 6.63428 7.89972 6.89949C7.89972 7.16471 7.79436 7.41907 7.60682 7.6066C7.41929 7.79414 7.16493 7.89949 6.89972 7.89949C6.6345 7.89949 6.38015 7.79414 6.19261 7.6066L4.07129 5.48528L1.94997 7.6066C1.76243 7.79414 1.50808 7.89949 1.24286 7.89949C0.977646 7.89949 0.723291 7.79414 0.535755 7.6066C0.348219 7.41907 0.242862 7.16471 0.242862 6.89949C0.242862 6.63428 0.348219 6.37992 0.535755 6.19239L2.65708 4.07107L0.535755 1.94975C0.348219 1.76221 0.242862 1.50786 0.242862 1.24264C0.242862 0.977424 0.348219 0.72307 0.535755 0.535534C0.723291 0.347998 0.977646 0.242641 1.24286 0.242641C1.50808 0.242641 1.76243 0.347997 1.94997 0.535534L4.07129 2.65685L6.19261 0.535534C6.38015 0.347997 6.6345 0.242641 6.89972 0.242641C7.16493 0.242641 7.41929 0.347998 7.60682 0.535534Z" fill="#333333"/>
</svg>
